<svg xmlns="http://www.w3.org/2000/svg" data-name="Layer 1" viewBox="0 0 512 512"><path d="M239.00023 398.99556H193.51977a3 3 0 110-6h45.48046a3 3 0 010 6zM115.15723 320.28516h-.00586a.50035.50035 0 01-.49414-.50586l.71875-56.626a1.93386 1.93386 0 00-1.93262-1.92676H99.78613a1.93508 1.93508 0 00-1.93261 1.93262v1.09961a2.9366 2.9366 0 01-2.9336 2.93262H36.05566a1.93529 1.93529 0 00-1.93359 1.93261v4.78809a.5.5 0 01-1 0V269.124a2.9366 2.9366 0 012.93359-2.93261H94.91992a1.9353 1.9353 0 001.9336-1.93262v-1.09961a2.93576 2.93576 0 012.93261-2.93262h13.65723a2.93576 2.93576 0 012.93262 2.93262l-.71875 56.63281A.50019.50019 0 01115.15723 320.28516z"/><path fill="#fed44a" d="M41.04774,321.94588h71.676a2.43271,2.43271,0,0,0,2.3533-3.04919l-11.39078-43.482a2.4327,2.4327,0,0,0-2.3533-1.81622H27.09525a2.4327,2.4327,0,0,0-2.31638,3.176l13.95249,43.482A2.43271,2.43271,0,0,0,41.04774,321.94588Z"/><path d="M394.91211,292.77637a3.12532,3.12532,0,0,1-.55762-.05078c-5.12109-.93653-5.73144-14.57422-5.78418-16.127a27.17531,27.17531,0,0,0-1.377-10.9209c-5.79492,1.17286-10.80078.08594-14.88477-3.23339-12.40039-10.0752-12.26953-36.98243-12.25781-38.12305a.50058.50058,0,0,1,.5-.49512h.00488a.49974.49974,0,0,1,.49512.50488c-.00293.27442-.13769,27.56836,11.88965,37.3379,3.93555,3.19824,8.80566,4.1875,14.46484,2.94238a.49676.49676,0,0,1,.57032.2998,27.29547,27.29547,0,0,1,1.59277,11.71778c.13769,3.92968,1.2959,14.44238,4.96582,15.11328,2.458.43652,7.12012-3.22461,15.48242-23.23438a.49948.49948,0,0,1,.92188.38477C404.23242,284.94434,398.97949,292.77637,394.91211,292.77637Z"/><path d="M374.88867 248.52246a3.33 3.33 0 01-1.85742-.52051 4.04692 4.04692 0 01-1.57813-2.75195 7.042 7.042 0 01.40137-3.832c.15528-.50879.3252-1.06836.47754-1.73145.44922-1.9541 1.00781-4.38574.02735-6.69824a6.2582 6.2582 0 00-3.76856-3.6084 5.77518 5.77518 0 00-3.667.18067.49963.49963 0 11-.36133-.93164 6.7584 6.7584 0 014.31152-.208 7.24791 7.24791 0 014.40332 4.17187c1.10938 2.61621.48536 5.333.0293 7.31739-.1582.68847-.334 1.26953-.49512 1.79882a6.17048 6.17048 0 00-.37793 3.34375 3.1281 3.1281 0 001.14649 2.11329 3.057 3.057 0 002.33984.22265 4.57748 4.57748 0 002.71289-1.93359.5.5 0 01.82813.56054 5.54283 5.54283 0 01-4.57227 2.50684zM376.51758 230.58594a.5.5 0 01-.42188-.76856c3.34864-5.24707 11.07813-2.27246 11.40625-2.14258a.49979.49979 0 01-.36718.92969c-.07129-.02832-7.292-2.79785-10.19532 1.75A.5003.5003 0 01376.51758 230.58594z"/><ellipse cx="380.945" cy="237.026" rx="1.898" ry="3.065" transform="rotate(-8.237 380.942 237.025)"/><ellipse cx="367.134" cy="239.025" rx="1.898" ry="3.065" transform="rotate(-8.237 367.134 239.025)"/><path d="M380.50586 253.5332a.5.5 0 01-.043-.998c2.78809-.24512 4.62988-1.08887 5.47559-2.50879a4.99259 4.99259 0 00.14257-4.09278.5.5 0 01.918-.39648 5.9565 5.9565 0 01-.20117 5.001c-1.01953 1.71191-3.12109 2.71875-6.24707 2.99316C380.53613 253.53223 380.52051 253.5332 380.50586 253.5332zM387.513 264.66142a21.16691 21.16691 0 0013.91509-7.78466 30.76321 30.76321 0 01-12.30747 18.54369A25.99217 25.99217 0 00387.513 264.66142z"/><path d="M376.61426,340.72168a.49853.49853,0,0,1-.34473-.1377,19.08551,19.08551,0,0,0-7.51367-4.39746l-.98828-.30371a.50119.50119,0,0,1-.35254-.49414l.875-26.25781-6.1709-3.74024a.5.5,0,0,1-.18652-.65527,90.89532,90.89532,0,0,1,26.48047-31.47461.5002.5002,0,0,1,.59961.80078,89.90156,89.90156,0,0,0-25.97657,30.71582l6.02246,3.64942a.49971.49971,0,0,1,.24121.44433L368.42773,335.04l.62207.19141a20.08837,20.08837,0,0,1,7.75489,4.48339c3.17187-.11621,40.93261-1.5,45.09179-1.77734a.63767.63767,0,0,0,.52637-.32617c1.66992-2.55567-2.37695-15.32031-4.07715-20.02344a.50071.50071,0,0,1,.47071-.66992c2.24414,0,8.1582-1.97168,17.10449-5.70313,4.2539-1.77343,8.64648-3.60546,12.5664-5.5a87.45587,87.45587,0,0,0-38.23046-36.5664.50051.50051,0,0,1,.4414-.89844,88.47026,88.47026,0,0,1,38.918,37.44727.49924.49924,0,0,1-.21973.6875c-4.0625,1.98828-8.65234,3.90234-13.09082,5.7539-8.41015,3.50684-14.0498,5.43262-16.79492,5.73633,1.21387,3.44629,5.82422,17.1084,3.749,20.2832a1.63532,1.63532,0,0,1-1.29688.77735c-4.335.28906-44.9209,1.7705-45.33008,1.78613Z"/><polygon points="410.478 297.766 418.457 318.006 423.943 316.757 410.478 297.766"/><polygon points="369.28 309.083 370.18 297 366.309 307.526 369.28 309.083"/><path d="M330.46875,385.1377a6.07217,6.07217,0,0,1-1.55469-.19727c-1.89746-.5-3.40332-1.93555-4.4834-4.27148-1.30468.81543-4.81933,2.71-7.68164,1.46777-1.97656-.8584-3.19726-3.01074-3.6289-6.39649a19.90843,19.90843,0,0,1,1.5039-10.20605,48.62152,48.62152,0,0,1,7.38184-12.63184c-3.94434,2.12207-10.74512,5.99219-14.08887,9.13965-2.92676,2.75391-5.91211,2.81934-7.57422,1.665-1.49511-1.04-2.5332-3.47363-.96582-7.18652,2.64453-6.26367,17.334-18.01172,21.89063-20.24317-1.65625-1.41113-5.85938-5.32422-6.59473-9.24707-.62207-3.31738-.16113-5.83593,1.29785-7.08886,1.23828-1.06543,3.085-1.17871,5.48926-.335a37.4243,37.4243,0,0,1,7.98047,4.5166c3.15137,2.12793,6.41016,4.32812,9.61133,4.95215,3.81347.74414,7.70117,1.19921,10.54,1.53125,1.67285.19628,2.99511.35058,3.90136.51074,5.21387.9209,17.93555,3.61621,23.46094,8.7373a.5.5,0,0,1-.67969.7334c-5.33007-4.94043-17.8291-7.58008-22.95507-8.48633-.87793-.15429-2.252-.31543-3.84375-.502-2.8545-.334-6.76368-.791-10.61524-1.542-3.40137-.66407-6.74512-2.92188-9.97949-5.10547a36.80116,36.80116,0,0,0-7.751-4.40235c-2.04492-.71582-3.56054-.665-4.50781.14942-1.16016.99707-1.51269,3.2373-.9668,6.14746.83106,4.42773,6.82715,9.13867,6.8877,9.18555a.49908.49908,0,0,1-.18848.87988c-2.76367.67285-19.32031,13.51855-22.05566,19.99707-1.11719,2.64551-.88184,4.93555.61426,5.97656,1.33105.92481,3.7998.79981,6.31836-1.57226,4.959-4.667,16.83984-10.63184,17.34277-10.88379a.5.5,0,0,1,.53808.83593c-4.47656,3.61817-7.915,10.73633-9.5664,14.65723a18.89952,18.89952,0,0,0-1.4336,9.69043c.38379,3.01074,1.4043,4.89649,3.03223,5.60449,2.99414,1.30176,7.17285-1.67089,7.21485-1.70019a.49986.49986,0,0,1,.75488.21582c.96582,2.35742,2.3291,3.78418,4.05078,4.23926,3.13086.82714,6.5293-1.78809,6.56348-1.81543a.50319.50319,0,0,1,.67089.04882,3.19083,3.19083,0,0,0,2.75,1.21192c3.09961-.38379,6.30371-6.06445,8.21778-9.459a27.485,27.485,0,0,1,1.7041-2.80859c1.20312-1.54785,3.43945-.2793,6.53223,1.46777,3.41308,1.92969,7.6455,4.33008,12.29492,4.17774l1.59668-.04981c60.34277-1.876,96.832-5.92285,100.1123-11.10254,5.3252-8.40625-22.75195-57.96777-23.03613-58.46777a.49989.49989,0,1,1,.86914-.49414c1.17285,2.06152,28.65527,50.58789,23.01269,59.49707-4.73925,7.48145-65.26757,10.458-100.92675,11.56641l-1.59473.05078c-4.92969.15625-9.4834-2.41992-12.82031-4.30664-2.45606-1.38867-4.57813-2.59082-5.251-1.72559a28.04669,28.04669,0,0,0-1.62207,2.68653c-2.13672,3.78906-5.36621,9.51464-8.9668,9.96a3.99538,3.99538,0,0,1-3.28418-1.20606A10.47435,10.47435,0,0,1,330.46875,385.1377Z"/><path d="M336.03711 383.05078a.49828.49828 0 01-.46289-.31152c-1.97461-4.86035 8.083-20.10742 8.51172-20.75391a.50026.50026 0 11.834.55274c-2.8418 4.2832-9.89453 16.19433-8.41992 19.82421a.50025.50025 0 01-.46289.68848zM324.65234 380.42285c-.01464 0-.02832-.001-.043-.00195a.49947.49947 0 01-.45606-.54c.87793-10.5332 10.83106-23.64648 11.25391-24.19922a.50021.50021 0 01.79492.60742c-.10254.13379-10.19922 13.43555-11.05274 23.67578A.49941.49941 0 01324.65234 380.42285zM351.48828 331.83691a.49975.49975 0 01-.4248-.76464l14.82129-23.81153a.5005.5005 0 01.84961.5293l-14.82129 23.81152A.50086.50086 0 01351.48828 331.83691zM467.11133 388.43848a.50108.50108 0 01-.48242-.36719l-5.06543-18.38184a.50062.50062 0 01.34961-.61523.50623.50623 0 01.61523.34961l5.06543 18.38183a.50064.50064 0 01-.34961.61524A.517.517 0 01467.11133 388.43848zM367.915 388.43848a.49972.49972 0 01-.5-.5V377.2959a.5.5 0 111 0v10.64258A.49972.49972 0 01367.915 388.43848z"/><path d="M477.42578,388.43848H151.6377a.5.5,0,0,1,0-1H477.42578a.5.5,0,1,1,0,1Z"/><path fill="#fd6f41" d="M175.01283,374.86312H282.67942l-16.21805-77.84667H159.47053a1.62181,1.62181,0,0,0-1.58772,1.95258l15.5423,74.60306A1.62181,1.62181,0,0,0,175.01283,374.86312Z"/><path d="M273.03825,298.30744l15.54231,74.60306a1.62181,1.62181,0,0,1-1.58772,1.95258h-4.31335l-16.21806-77.84667h4.98911A1.6218,1.6218,0,0,1,273.03825,298.30744Z"/><path fill="#674cfb" d="M188.689,398.99559h25.74489l16.21806-46.708H203.78076a1.6218,1.6218,0,0,0-1.53208,1.08983l-15.0918,43.4644A1.6218,1.6218,0,0,0,188.689,398.99559Z"/><path d="M235.33878,354.44135,220.247,397.90573a1.62179,1.62179,0,0,1-1.53207,1.08983h-4.28113l16.218-46.708h3.15488A1.6218,1.6218,0,0,1,235.33878,354.44135Z"/><rect width="11.677" height="7.395" x="214.239" y="332.242" rx="3.698" transform="rotate(-180 220.078 335.94)"/><rect width="45.521" height="5.193" x="441.818" y="337.041" fill="#fed44a" transform="rotate(-180 464.579 339.638)"/><rect width="45.521" height="5.193" x="154.635" y="278.396" fill="#674cfb"/><rect width="45.521" height="5.193" x="395.8" y="180.635" fill="#fd6f41"/><path d="M344.50293,269.9668a3.81836,3.81836,0,1,1,3.81836-3.81836A3.82266,3.82266,0,0,1,344.50293,269.9668Zm0-6.63672a2.81836,2.81836,0,1,0,2.81836,2.81836A2.822,2.822,0,0,0,344.50293,263.33008Z"/><polygon fill="#fd6f41" points="135.62 305.28 141.556 303.658 137.242 298.533 135.62 305.28"/><polygon fill="#fed44a" points="467.79 291.336 473.726 289.715 469.412 284.59 467.79 291.336"/><polygon fill="#fed44a" points="350.263 172.808 356.198 171.186 351.884 166.061 350.263 172.808"/><polygon fill="#674cfb" points="415.593 204.739 421.528 203.117 417.214 197.992 415.593 204.739"/><polygon fill="#2ca68f" points="311.564 402.701 317.5 401.079 313.186 395.954 311.564 402.701"/><path d="M407.49431,224.33277s-1.22-21.14655-9.35328-21.95988-7.32-6.1-11.79326-5.6933-8.74329,6.71-11.79327,6.50663-11.58994-10.77661-19.72322-3.45665-6.3033,27.65318,12.80992,24.6032,10.97994-10.16661,22.16321-6.3033,9.96328,16.87657,11.79327,16.87657S404.03767,224.12943,407.49431,224.33277Z"/><path d="M410.47754 269.2002a.49713.49713 0 01-.42481-.23731c-6.03515-9.751-4.6748-24.96582-4.61425-25.6084a.50675.50675 0 01.10742-.26465c4.13281-5.18261 5.84472-9.68945 5.09082-13.39453a7.56058 7.56058 0 00-3.38086-4.92285.4999.4999 0 01.47656-.87891 8.48578 8.48578 0 013.88379 5.60254c.81055 3.9795-.93652 8.72168-5.19433 14.09766-.126 1.59766-1.06934 15.874 4.48046 24.84375a.50026.50026 0 01-.4248.7627zM189.10742 257.3916H138.58789a.49971.49971 0 01-.5-.5V192.28516a.49971.49971 0 01.5-.5h37.42383a.5.5 0 010 1H139.08789V256.3916h49.51953V205.38086a.5.5 0 011 0V256.8916A.49971.49971 0 01189.10742 257.3916z"/><path d="M189.10742 205.88965H176.00293a.49971.49971 0 01-.5-.5V192.28516a.5.5 0 01.85352-.35352l13.10449 13.10449a.5.5 0 01-.35352.85352zm-12.60449-1h11.39746l-11.39746-11.39746zM205.62305 239.418H189.10742a.5.5 0 010-1h16.01563V187.40723a.5.5 0 011 0V238.918A.49972.49972 0 01205.62305 239.418zM155.10352 192.78516a.49972.49972 0 01-.5-.5V174.3125a.49971.49971 0 01.5-.5h37.42382a.5.5 0 010 1H155.60352v17.47266A.49972.49972 0 01155.10352 192.78516z"/><path d="M205.62305 187.917h-13.1045a.49972.49972 0 01-.5-.5V174.3125a.5.5 0 01.85352-.35352l13.10449 13.1045a.5.5 0 01-.35351.85351zm-12.6045-1H204.416l-11.39747-11.39746zM222.13867 221.44531H205.62305a.5.5 0 110-1h16.01562V169.43457a.5.5 0 011 0v51.51074A.49971.49971 0 01222.13867 221.44531zM171.62012 174.8125a.49971.49971 0 01-.5-.5V156.33984a.49972.49972 0 01.5-.5H209.043a.5.5 0 010 1H172.12012V174.3125A.49972.49972 0 01171.62012 174.8125z"/><path d="M222.13867 169.94434H209.03418a.49972.49972 0 01-.5-.5v-13.1045a.5.5 0 01.85352-.35351l13.10449 13.10449a.5.5 0 01-.35352.85352zm-12.60449-1h11.39746l-11.39746-11.39746zM165.95215 200.47656H144.82227a.5.5 0 010-1h21.12988a.5.5 0 110 1zM165.95215 207.52051H144.82227a.5.5 0 010-1h21.12988a.5.5 0 110 1zM181.57812 214.56348H144.82227a.5.5 0 010-1h36.75585a.5.5 0 010 1zM181.57812 221.60742H144.82227a.5.5 0 010-1h36.75585a.5.5 0 010 1zM181.57812 228.65039H144.82227a.5.5 0 010-1h36.75585a.5.5 0 010 1zM181.57812 235.69434H144.82227a.5.5 0 010-1h36.75585a.5.5 0 010 1zM181.57812 242.7373H144.82227a.5.5 0 010-1h36.75585a.5.5 0 010 1zM181.57812 249.78125H144.82227a.5.5 0 010-1h36.75585a.5.5 0 010 1zM181.73926 185.74219H160.60938a.5.5 0 010-1h21.12988a.5.5 0 010 1zM181.73926 192.78516H160.60938a.5.5 0 010-1h21.12988a.5.5 0 010 1zM197.36523 199.8291H183.0459a.5.5 0 010-1h14.31933a.5.5 0 010 1zM197.36523 206.87207h-8.25781a.5.5 0 010-1h8.25781a.5.5 0 010 1zM197.36523 213.916h-8.25781a.5.5 0 010-1h8.25781a.5.5 0 010 1zM197.36523 220.959h-8.25781a.5.5 0 010-1h8.25781a.5.5 0 010 1zM197.36523 228.00293h-8.25781a.5.5 0 010-1h8.25781a.5.5 0 010 1zM197.36523 235.04688h-8.25781a.5.5 0 010-1h8.25781a.5.5 0 010 1zM198.25586 167.76855H177.125a.5.5 0 010-1h21.13086a.5.5 0 010 1zM198.25586 174.8125H177.125a.5.5 0 010-1h21.13086a.5.5 0 010 1zM213.88086 181.85645H199.56152a.5.5 0 110-1h14.31934a.5.5 0 010 1zM213.88086 188.89941h-8.25781a.5.5 0 010-1h8.25781a.5.5 0 010 1zM213.88086 195.94336h-8.25781a.5.5 0 010-1h8.25781a.5.5 0 010 1zM213.88086 202.98633h-8.25781a.5.5 0 110-1h8.25781a.5.5 0 110 1zM213.88086 210.03027h-8.25781a.5.5 0 010-1h8.25781a.5.5 0 010 1zM213.88086 217.07324h-8.25781a.5.5 0 110-1h8.25781a.5.5 0 110 1z"/><path fill="#674cfb" d="M235.85109,158.25305a14.04167,14.04167,0,0,1,22.69575-7.20423,19.55751,19.55751,0,0,1,24.70129-13.44958c-.00965-.29807-.02252-.59534-.02252-.89576a27.40431,27.40431,0,1,1,54.80861,0c0,.20365-.011.40456-.01528.60714a19.55515,19.55515,0,0,1,24.22336,20.94243Z"/><path d="M69.81738 262.74609a.49972.49972 0 01-.5-.5V254.249a5.372 5.372 0 015.36621-5.36523h38.8418a4.36988 4.36988 0 004.36523-4.36524v-30.123a4.36988 4.36988 0 00-4.36523-4.36524H90.56055a5.372 5.372 0 01-5.36524-5.36621V174.2998a5.37182 5.37182 0 015.36524-5.36523h80.55957V156.33984a.49972.49972 0 01.5-.5h14.94531V126.20605a5.372 5.372 0 015.36621-5.36523h17.63672a5.37181 5.37181 0 015.36523 5.36523v5.96875a4.36989 4.36989 0 004.36524 4.36524H262.333a.5.5 0 010 1H219.29883a5.37182 5.37182 0 01-5.36524-5.36524v-5.96875a4.36988 4.36988 0 00-4.36523-4.36523H191.93164a4.37072 4.37072 0 00-4.36621 4.36523v30.13379a.49971.49971 0 01-.5.5H172.12012v12.59473a.49972.49972 0 01-.5.5H90.56055a4.36989 4.36989 0 00-4.36524 4.36523v30.36426a4.37072 4.37072 0 004.36524 4.36621h22.96484a5.37181 5.37181 0 015.36523 5.36524v30.123a5.37181 5.37181 0 01-5.36523 5.36524H74.68359a4.37072 4.37072 0 00-4.36621 4.36523v7.99707A.49971.49971 0 0169.81738 262.74609zM252.0918 289.40723a.49972.49972 0 01-.5-.5V265.5918a4.36989 4.36989 0 00-4.36524-4.36524h-11.709a5.37181 5.37181 0 01-5.36524-5.36523V233.52539a5.372 5.372 0 015.36524-5.36621h76.5166a4.36988 4.36988 0 004.36523-4.36523V197.15137a4.37071 4.37071 0 00-4.36523-4.36621H273.88965a5.372 5.372 0 01-5.36621-5.36524v-9.74609a5.37222 5.37222 0 015.36621-5.36621h20.3418a4.36989 4.36989 0 004.36523-4.36524v-3.668a.5.5 0 011 0v3.668a5.37182 5.37182 0 01-5.36523 5.36524h-20.3418a4.37155 4.37155 0 00-4.36621 4.36621v9.74609a4.37072 4.37072 0 004.36621 4.36524h38.14453a5.372 5.372 0 015.36523 5.36621V223.794a5.37181 5.37181 0 01-5.36523 5.36523h-76.5166a4.37072 4.37072 0 00-4.36524 4.36621v22.33594a4.36989 4.36989 0 004.36524 4.36523h11.709a5.37182 5.37182 0 015.36524 5.36524v23.31543A.49972.49972 0 01252.0918 289.40723zM323.3404 136.98832a10.22239 10.22239 0 01-4.75392 8.659 1.17307 1.17307 0 01-1.25985-1.9786 7.9146 7.9146 0 00-4.24566-14.59476h-4.79084l1.37183 1.37183a1.17164 1.17164 0 11-1.65792 1.65559l-3.37331-3.371a1.19133 1.19133 0 01-.14655-.17879.96461.96461 0 01-.04573-.08677.67513.67513 0 01-.09851-.23393c-.00937-.03166-.02284-.06623-.02989-.10024a1.18349 1.18349 0 010-.45844c.007-.03637.02052-.06861.02989-.1026a.66363.66363 0 01.09851-.23157.61187.61187 0 01.04573-.08677 1.20806 1.20806 0 01.14655-.18114l3.37331-3.371a1.17248 1.17248 0 011.65792 1.65792l-1.37183 1.37183H313.081a10.27221 10.27221 0 0110.25943 10.25941zM314.16438 146.52432c.01349-.03929.02519-.078.03635-.11724.00937-.034.02285-.06627.0299-.10261a1.18315 1.18315 0 000-.45845c-.007-.034-.02053-.0686-.0299-.10025a.65673.65673 0 00-.09849-.2339.77536.77536 0 00-.04575-.08678 1.19185 1.19185 0 00-.14654-.1788l-3.3733-3.37095a1.17162 1.17162 0 00-1.65792 1.65556l1.37183 1.37183h-4.79085a7.91546 7.91546 0 01-4.24566-14.59474 1.1731 1.1731 0 00-1.25985-1.97861 10.26 10.26 0 005.50551 18.91838h4.79085l-1.37183 1.37183a1.17243 1.17243 0 101.65792 1.65792l3.3733-3.371a1.20808 1.20808 0 00.14654-.18115.6135.6135 0 00.04575-.08677 1.26554 1.26554 0 00.06214-.1143z"/></svg>